<?xml version="1.0" encoding="UTF-8" standalone="no"?>
<svg
   width="377.67935"
   height="65.675087"
   viewBox="0 0 377.67935 65.675087"
   style="overflow:visible"
   data-bbox="14.154223955410203 14.046518741363599 377.6793512493823 65.6750896473377"
   version="1.1"
   id="svg2"
   sodipodi:docname="logo.svg"
   xmlns:inkscape="http://www.inkscape.org/namespaces/inkscape"
   xmlns:sodipodi="http://sodipodi.sourceforge.net/DTD/sodipodi-0.dtd"
   xmlns="http://www.w3.org/2000/svg"
   xmlns:svg="http://www.w3.org/2000/svg">
  <sodipodi:namedview
     id="namedview2"
     pagecolor="#ffffff"
     bordercolor="#000000"
     borderopacity="0.25"
     inkscape:showpageshadow="2"
     inkscape:pageopacity="0.0"
     inkscape:pagecheckerboard="0"
     inkscape:deskcolor="#d1d1d1" />
  <defs
     transform="matrix(0.8963905572891235, 0, 0, 0.8963905572891235, 26.52398681640625, 26.52399253845215)"
     data-uid="o_fd4bf421i_8"
     id="defs2">
    <linearGradient
       x1="27.170065"
       y1="18.22838"
       x2="80.246452"
       y2="-73.479836"
       id="o_fd4bf421i_6"
       gradientUnits="userSpaceOnUse"
       data-uid="o_fd4bf421i_13"
       gradientTransform="matrix(3.5664236,0,0,0.6201694,-2.7067179,49.970177)">
      <stop
         offset="0%"
         stop-color="rgb(82,95,233)"
         stop-opacity="1"
         data-uid="o_fd4bf421i_14"
         id="stop1" />
      <stop
         offset="100%"
         stop-color="rgb(1,191,248)"
         stop-opacity="1"
         data-uid="o_fd4bf421i_15"
         id="stop2" />
    </linearGradient>
  </defs>
  <path
     text="X Attempt UI"
     fill="url(#o_fd4bf421i_6)"
     space="preserve"
     text-anchor="start"
     offset="0"
     font-scale="contain"
     font-size="48px"
     font-family="'DM Sans'"
     font-style="normal"
     font-weight="400"
     letter-spacing="-2"
     data-fl-textpath=""
     data-uid="o_fd4bf421i_16"
     d="M 6.7816673,49.970177 H 1.3800055e-7 L 15.288495,24.776879 1.3800055e-7,-1.7569873e-6 H 6.7816673 L 19.066003,19.98807 30.770327,-1.7569873e-6 h 6.707307 L 22.204011,25.059448 37.551995,49.970177 H 30.770327 L 18.426504,29.907745 Z m 54.8720157,0 H 55.377666 L 73.789297,-1.7569873e-6 h 6.365249 L 98.491817,49.970177 H 92.14144 L 87.575713,37.120702 H 66.293771 Z M 76.942178,7.5698854 68.07842,32.272405 H 85.791064 Z M 119.00933,49.970177 h -5.4283 q -4.8483,0 -7.64425,-2.349788 -2.78108,-2.36466 -2.78108,-8.506828 v 0 -19.482421 h -6.142167 v -5.071378 h 6.142167 l 0.78822,-8.4919563 h 5.20523 v 8.4919563 h 10.42532 v 5.071378 h -10.42532 v 19.482421 q 0,3.361089 1.36823,4.535983 1.35336,1.174894 4.77394,1.174894 v 0 h 3.71801 z m 24.65196,0 h -5.42831 q -4.8483,0 -7.64425,-2.349788 -2.78107,-2.36466 -2.78107,-8.506828 v 0 -19.482421 h -6.14217 v -5.071378 h 6.14217 l 0.78822,-8.4919563 h 5.20522 v 8.4919563 h 10.42533 V 19.63114 H 133.8011 v 19.482421 q 0,3.361089 1.36823,4.535983 1.35336,1.174894 4.77394,1.174894 v 0 h 3.71802 z m 20.15761,0.86258 v 0 q -5.07138,0 -8.9976,-2.320044 -3.92623,-2.320044 -6.17192,-6.469353 -2.26055,-4.134437 -2.26055,-9.770955 v 0 q 0,-5.577029 2.21594,-9.756082 2.21594,-4.164182 6.17191,-6.484226 3.97084,-2.320044 9.17607,-2.320044 v 0 q 5.14574,0 8.8935,2.320044 3.74777,2.320044 5.74063,6.097552 2.00773,3.777507 2.00773,8.135026 v 0 q 0,0.78822 -0.0446,1.57644 -0.0297,0.78822 -0.0297,1.784649 v 0 h -28.19746 q 0.20821,4.060077 1.88875,6.737051 1.68055,2.676974 4.2088,4.045205 2.54312,1.353359 5.39856,1.353359 v 0 q 3.70315,0 6.20166,-1.710289 2.49851,-1.725161 3.64366,-4.640088 v 0 h 5.91908 q -1.42772,4.922658 -5.45805,8.164771 -4.03033,3.256984 -10.30635,3.256984 z m 0,-32.064198 v 0 q -4.28316,0 -7.6145,2.617486 -3.31647,2.602613 -3.80725,7.599631 v 0 h 22.2635 q -0.20821,-4.788808 -3.28673,-7.495526 -3.06365,-2.721591 -7.55502,-2.721591 z m 27.70966,31.201618 h -5.99345 V 14.559762 h 5.42831 l 0.43129,5.145738 q 1.71029,-2.855439 4.56573,-4.431879 2.85543,-1.561568 6.42473,-1.561568 v 0 q 4.2088,0 7.2427,1.710289 3.03391,1.710289 4.68471,5.205227 v 0 q 1.84414,-3.212369 5.10112,-5.071378 3.24211,-1.844138 7.03449,-1.844138 v 0 q 6.35038,0 10.12789,3.807252 3.79238,3.822124 3.79238,11.748941 v 0 20.701931 H 234.4345 V 29.907745 q 0,-5.487796 -2.21594,-8.283747 -2.20107,-2.781078 -6.35038,-2.781078 v 0 q -4.28316,0 -7.09398,3.316473 -2.82569,3.331345 -2.82569,9.458641 v 0 18.352143 h -5.99345 V 29.907745 q 0,-5.487796 -2.21594,-8.283747 -2.21594,-2.781078 -6.35038,-2.781078 v 0 q -4.20879,0 -7.03449,3.316473 -2.82569,3.331345 -2.82569,9.458641 v 0 z m 60.91602,15.704913 h -5.99344 V 14.559762 h 5.42831 l 0.56513,5.859598 q 1.72516,-2.572869 4.89292,-4.640088 3.18262,-2.067219 8.10528,-2.067219 v 0 q 5.27959,0 9.20581,2.424149 3.92623,2.424148 6.11243,6.632946 2.17132,4.208798 2.17132,9.562746 v 0 q 0,5.353947 -2.17132,9.533001 -2.1862,4.179054 -6.14217,6.573458 -3.97084,2.394404 -9.25043,2.394404 v 0 q -4.35752,0 -7.74835,-1.784649 -3.39084,-1.784649 -5.17549,-4.997018 v 0 z m 12.28434,-20.062432 v 0 q 3.5693,0 6.27602,-1.680544 2.72159,-1.665673 4.28315,-4.669832 1.57644,-3.00416 1.57644,-6.989877 v 0 q 0,-4.000588 -1.57644,-7.004748 -1.56156,-2.989287 -4.28315,-4.669832 -2.70672,-1.680545 -6.27602,-1.680545 v 0 q -3.5693,0 -6.27602,1.680545 -2.72159,1.680545 -4.28316,4.669832 -1.57644,3.00416 -1.57644,7.004748 v 0 q 0,3.985717 1.57644,6.989877 1.56157,3.004159 4.28316,4.669832 2.70672,1.680544 6.27602,1.680544 z m 41.5734,4.357519 h -5.4283 q -4.8483,0 -7.64425,-2.349788 -2.78108,-2.36466 -2.78108,-8.506828 v 0 -19.482421 h -6.14217 v -5.071378 h 6.14217 l 0.78822,-8.4919563 h 5.20523 v 8.4919563 h 10.42532 v 5.071378 h -10.42532 v 19.482421 q 0,3.361089 1.36823,4.535983 1.35336,1.174894 4.77393,1.174894 v 0 h 3.71802 z m 39.5984,0.86258 v 0 q -5.14574,0 -9.3248,-2.037474 -4.17905,-2.037475 -6.67756,-6.320633 -2.49851,-4.283158 -2.49851,-10.916104 v 0 V -1.7569873e-6 h 6.00832 V 31.618034 q 0,7.287318 3.49494,10.574047 3.49494,3.286729 9.13145,3.286729 v 0 q 5.63652,0 9.07197,-3.286729 3.42058,-3.286729 3.42058,-10.574047 v 0 V -1.7569873e-6 h 5.99345 V 31.558546 q 0,6.632946 -2.49851,10.916104 -2.49851,4.283158 -6.70731,6.320633 -4.2088,2.037474 -9.41402,2.037474 z m 31.77865,-0.86258 h -5.99345 V -1.7569873e-6 h 5.99345 z"
     id="path2"
     style="fill:url(#o_fd4bf421i_6);stroke-width:1.48721" />
</svg>
